# xmcd
#
# Track frame offsets:
#	150
#	17117
#	35173
#	49874
#	67175
#	83315
#	98694
#	118143
#	132422
#	150331
#	169018
#	187159
#	201421
#
# Disc length: 2996 seconds
#
# Revision: 1
# Processed by: cddbd v1.5.2PL0 Copyright (c) Steve Scherf et al.
# Submitted via: audiograbber 1.83.01
#
DISCID=b30bb20d
DTITLE=Douma en Douma and de dokters - Blond, Bliid en Blostich
DYEAR=2012
DGENRE=Blues
TTITLE0=01- Douma en Douma- it Hynder
TTITLE1=02- Douma en Douma- Flinder
TTITLE2=03- Douma en Douma- Blond Bliid en Blostich
TTITLE3=04- Douma en Douma- Ik soe altyd by dy bliuwe 
TTITLE4=05- Douma en Douma- Dûnsje my dy
TTITLE5=06- Douma en Douma- Poppe
TTITLE6=07- Douma en Douma- Douma en Douma
TTITLE7=08- Douma en Douma- Pieter syn Kafee
TTITLE8=09- Douma en Douma- Hotel Blues
TTITLE9=10- Douma en Douma- Blommen
TTITLE10=11- Douma en Douma- Sliepe
TTITLE11=12- Douma en Douma- Dûnsje
TTITLE12=13- Douma en Douma- Dokter
EXTD=
EXTT0=
EXTT1=
EXTT2=
EXTT3=
EXTT4=
EXTT5=
EXTT6=
EXTT7=
EXTT8=
EXTT9=
EXTT10=
EXTT11=
EXTT12=
PLAYORDER=
